<svg width="22" height="22" viewBox="0 0 22 22" fill="none" xmlns="http://www.w3.org/2000/svg">
<path d="M14.1634 19.3206H14.7634V18.7206V12.5566C14.7634 12.5342 14.7723 12.5126 14.7882 12.4967C14.8042 12.4807 14.8259 12.4717 14.8487 12.4717H17.5899C17.6127 12.4717 17.6344 12.4807 17.6504 12.4967C17.6663 12.5126 17.6752 12.5342 17.6752 12.5566V18.7206V19.3206H18.2752H19.8743C19.897 19.3206 19.9188 19.3297 19.9347 19.3456C19.9507 19.3616 19.9596 19.3831 19.9596 19.4055C19.9596 19.4279 19.9507 19.4495 19.9347 19.4654C19.9188 19.4814 19.897 19.4904 19.8743 19.4904H1.59937C1.57663 19.4904 1.55489 19.4814 1.53892 19.4654C1.52296 19.4495 1.51406 19.4279 1.51406 19.4055C1.51406 19.3831 1.52296 19.3616 1.53892 19.3456C1.55489 19.3297 1.57663 19.3206 1.59937 19.3206H3.19843H3.79843V18.7206V7.99062C3.79843 7.96822 3.80732 7.94666 3.82328 7.93072C3.83925 7.91475 3.86099 7.90572 3.88373 7.90572H6.62497C6.64771 7.90572 6.66945 7.91475 6.68542 7.93072C6.70138 7.94666 6.71028 7.96822 6.71028 7.99062V18.7206V19.3206H7.31028H8.6809H9.2809V18.7206V3.88125C9.2809 3.20024 9.28396 2.8173 9.31944 2.54912C9.32331 2.52072 9.3272 2.49671 9.3309 2.4766C9.35114 2.47288 9.37531 2.46896 9.40393 2.46508C9.67129 2.42964 10.0552 2.42657 10.7368 2.42657C11.4182 2.42657 11.8014 2.42963 12.0698 2.4651C12.0984 2.46897 12.1225 2.47289 12.1427 2.4766C12.1465 2.49673 12.1503 2.52074 12.1542 2.54916C12.1897 2.81628 12.1927 3.19992 12.1927 3.88125V18.7206V19.3206H12.7927H14.1634Z" stroke="#191919" stroke-width="1.2"/>
</svg>
