<svg width="24" height="24" viewBox="0 0 24 24" fill="none" xmlns="http://www.w3.org/2000/svg">
<path d="M9.80932 16.1028L9.93595 15.5H9.32L3 15.5C2.60217 15.5 2.22064 15.342 1.93934 15.0607C1.65804 14.7794 1.5 14.3978 1.5 14V12C1.5 11.8095 1.53564 11.6333 1.60293 11.4591L4.61961 4.41688L4.61963 4.41689L4.62154 4.41231C4.84558 3.87461 5.37617 3.5 6 3.5L15 3.5C15.3978 3.5 15.7794 3.65804 16.0607 3.93934C16.342 4.22064 16.5 4.60217 16.5 5V15C16.5 15.4127 16.336 15.7869 16.0564 16.0664L9.82833 22.2946L9.12355 21.5964C9.12328 21.5962 9.12301 21.5959 9.12274 21.5956C8.94286 21.4153 8.83 21.1613 8.83 20.89C8.83 20.8097 8.83734 20.7337 8.84986 20.6702L9.80932 16.1028ZM19.5 14.5L19.5 3.5H22.5L22.5 14.5H19.5Z" stroke="#FE9D08"/>
</svg>
