<svg width="17" height="17" viewBox="0 0 17 17" fill="none" xmlns="http://www.w3.org/2000/svg">
<path d="M8.82512 1.17639C8.73086 1.1029 8.61475 1.06299 8.49522 1.06299C8.37569 1.06299 8.25958 1.1029 8.16531 1.17639L0.53125 7.12905L1.19159 7.96418L2.125 7.23636V13.8127C2.12556 14.0943 2.23768 14.3643 2.43682 14.5634C2.63596 14.7625 2.90588 14.8746 3.1875 14.8752H13.8125C14.0941 14.8746 14.364 14.7625 14.5632 14.5634C14.7623 14.3643 14.8744 14.0943 14.875 13.8127V7.24114L15.8084 7.96896L16.4688 7.13383L8.82512 1.17639ZM9.5625 13.8127H7.4375V9.56271H9.5625V13.8127ZM10.625 13.8127V9.56271C10.6247 9.281 10.5127 9.01091 10.3135 8.81172C10.1143 8.61252 9.84421 8.50049 9.5625 8.50021H7.4375C7.15579 8.50049 6.88571 8.61252 6.68651 8.81172C6.48731 9.01091 6.37528 9.281 6.375 9.56271V13.8127H3.1875V6.40814L8.5 2.26971L13.8125 6.41346V13.8127H10.625Z" fill="#5D7B87"/>
</svg>
