<svg width="23" height="22" viewBox="0 0 23 22" fill="none" xmlns="http://www.w3.org/2000/svg">
<path d="M11.3654 6.89726L11.8715 7.69209L12.3776 6.89726C13.2263 5.56446 14.7253 4.70938 16.4402 4.70938C19.1246 4.70938 21.3227 6.90671 21.3227 9.58853C21.3227 10.7777 20.7741 12.0231 19.8685 13.2573C18.9674 14.4853 17.7529 15.6476 16.5173 16.6579C15.2847 17.6657 14.0491 18.5079 13.12 19.0988C12.6561 19.3939 12.27 19.6254 12.0008 19.7826C11.9546 19.8096 11.9118 19.8344 11.8726 19.857C11.8333 19.8341 11.7903 19.809 11.7439 19.7817C11.4746 19.6233 11.0884 19.3902 10.6244 19.0933C9.69508 18.4987 8.45922 17.6522 7.22635 16.6413C5.9905 15.6279 4.77562 14.464 3.87427 13.2377C2.968 12.0047 2.42031 10.7653 2.42031 9.58853C2.42031 6.90671 4.61845 4.70938 7.30278 4.70938C9.01773 4.70938 10.5167 5.56446 11.3654 6.89726Z" stroke="#191919" stroke-width="1.2"/>
</svg>
