<svg width="17" height="17" viewBox="0 0 17 17" fill="none" xmlns="http://www.w3.org/2000/svg">
<path d="M10.9788 15.0207H11.4788V14.5207V9.73942C11.4788 9.73113 11.4821 9.72318 11.488 9.71732C11.4939 9.71146 11.5018 9.70817 11.5101 9.70817H13.6351C13.6434 9.70817 13.6513 9.71146 13.6572 9.71732C13.663 9.72318 13.6663 9.73113 13.6663 9.73942V14.5207V15.0207H14.1663H15.4059C15.4142 15.0207 15.4222 15.024 15.428 15.0298C15.4339 15.0357 15.4372 15.0436 15.4372 15.0519C15.4372 15.0602 15.4339 15.0682 15.428 15.074C15.4222 15.0799 15.4142 15.0832 15.4059 15.0832H1.23926C1.23097 15.0832 1.22302 15.0799 1.21716 15.074C1.2113 15.0682 1.20801 15.0602 1.20801 15.0519C1.20801 15.0436 1.2113 15.0357 1.21716 15.0298C1.22302 15.024 1.23097 15.0207 1.23926 15.0207H2.47884H2.97884V14.5207V6.19775C2.97884 6.18947 2.98213 6.18152 2.98799 6.17566C2.99385 6.1698 3.0018 6.1665 3.01009 6.1665H5.13509C5.14338 6.1665 5.15133 6.1698 5.15719 6.17566C5.16305 6.18152 5.16634 6.18947 5.16634 6.19775V14.5207V15.0207H5.66634H6.72884H7.22884V14.5207V3.01025C7.22884 2.48122 7.23129 2.18689 7.2584 1.98166C7.25993 1.97043 7.26146 1.96011 7.26297 1.95063C7.27245 1.94912 7.28278 1.94759 7.29401 1.94606C7.49841 1.91896 7.79328 1.9165 8.32259 1.9165C8.85169 1.9165 9.14603 1.91895 9.35126 1.94607C9.36246 1.9476 9.37276 1.94913 9.38221 1.95064C9.38373 1.96011 9.38526 1.97043 9.38678 1.98166C9.41389 2.18606 9.41634 2.48093 9.41634 3.01025V14.5207V15.0207H9.91634H10.9788Z" stroke="#5D7B87"/>
</svg>
