<svg width="17" height="17" viewBox="0 0 17 17" fill="none" xmlns="http://www.w3.org/2000/svg">
<path d="M8.07784 5.36844L8.49967 6.03131L8.9215 5.36844C9.57301 4.34465 10.7239 3.6875 12.0413 3.6875C14.1027 3.6875 15.7913 5.37614 15.7913 7.4375C15.7913 8.34956 15.3706 9.30844 14.6707 10.2629C13.9746 11.2122 13.0355 12.1116 12.0789 12.8943C11.1248 13.6749 10.1681 14.3274 9.44868 14.7852C9.08945 15.0138 8.79053 15.1931 8.58219 15.3149C8.55321 15.3318 8.52599 15.3476 8.50062 15.3623C8.47509 15.3474 8.44769 15.3314 8.41851 15.3142C8.21011 15.1916 7.91112 15.011 7.5518 14.7809C6.83218 14.3203 5.87534 13.6644 4.92099 12.8814C3.96416 12.0964 3.02478 11.1956 2.32842 10.2476C1.62797 9.29408 1.20801 8.33989 1.20801 7.4375C1.20801 5.37614 2.89665 3.6875 4.95801 3.6875C6.27544 3.6875 7.42634 4.34465 8.07784 5.36844Z" stroke="#5D7B87"/>
</svg>
