<svg width="24" height="24" viewBox="0 0 24 24" fill="none" xmlns="http://www.w3.org/2000/svg">
<path d="M12.0747 6.66294L12.5 7.35078L12.9253 6.66294C13.7428 5.34065 15.1813 4.5 16.8182 4.5C19.3786 4.5 21.5 6.66246 21.5 9.33333C21.5 10.5205 20.9689 11.7521 20.1084 12.9599C19.2513 14.1629 18.098 15.2989 16.9279 16.2842C15.7602 17.2676 14.59 18.089 13.7104 18.6651C13.2711 18.9528 12.9055 19.1786 12.6505 19.332C12.5953 19.3651 12.5454 19.3949 12.501 19.4212C12.4564 19.3946 12.4063 19.3645 12.3509 19.331C12.0958 19.1764 11.7301 18.9491 11.2907 18.6596C10.411 18.0799 9.24059 17.2543 8.07259 16.268C6.90225 15.2797 5.74871 14.1421 4.89136 12.9408C4.03038 11.7344 3.5 10.5086 3.5 9.33333C3.5 6.66246 5.62145 4.5 8.18182 4.5C9.81871 4.5 11.2572 5.34065 12.0747 6.66294Z" stroke="#FE9D08"/>
</svg>
