<svg width="36" height="36" viewBox="0 0 36 36" fill="none" xmlns="http://www.w3.org/2000/svg">
<path d="M5.25098 14.5755L17.212 26.235C17.4221 26.4398 17.7039 26.5544 17.9972 26.5544C18.2906 26.5544 18.5724 26.4398 18.7825 26.235L30.748 14.5755C30.846 14.4801 30.9238 14.3661 30.977 14.2401C31.0302 14.1141 31.0576 13.9787 31.0576 13.842C31.0576 13.7053 31.0302 13.5699 30.977 13.4439C30.9238 13.3179 30.846 13.2039 30.748 13.1085C30.5471 12.9122 30.2773 12.8024 29.9965 12.8024C29.7156 12.8024 29.4459 12.9122 29.245 13.1085L17.9972 24.0727L6.75173 13.1085C6.55092 12.9129 6.28168 12.8035 6.00136 12.8035C5.72104 12.8035 5.4518 12.9129 5.25098 13.1085C5.15301 13.2039 5.07514 13.3179 5.02197 13.4439C4.9688 13.5699 4.94141 13.7053 4.94141 13.842C4.94141 13.9787 4.9688 14.1141 5.02197 14.2401C5.07514 14.3661 5.15301 14.4801 5.25098 14.5755Z" fill="#0C1A37"/>
</svg>
