<svg width="36" height="36" viewBox="0 0 36 36" fill="none" xmlns="http://www.w3.org/2000/svg">
<path d="M30.749 21.4245L18.788 9.76501C18.5779 9.56023 18.2961 9.44562 18.0028 9.44562C17.7094 9.44562 17.4276 9.56023 17.2175 9.76501L5.25202 21.4245C5.15404 21.5199 5.07617 21.6339 5.023 21.7599C4.96983 21.8859 4.94244 22.0213 4.94244 22.158C4.94244 22.2947 4.96983 22.4301 5.023 22.5561C5.07617 22.6821 5.15404 22.7961 5.25202 22.8915C5.45294 23.0878 5.72266 23.1976 6.00352 23.1976C6.28438 23.1976 6.5541 23.0878 6.75502 22.8915L18.0028 11.9273L29.2483 22.8915C29.4491 23.0871 29.7183 23.1965 29.9986 23.1965C30.279 23.1965 30.5482 23.0871 30.749 22.8915C30.847 22.7961 30.9249 22.6821 30.978 22.5561C31.0312 22.4301 31.0586 22.2947 31.0586 22.158C31.0586 22.0213 31.0312 21.8859 30.978 21.7599C30.9249 21.6339 30.847 21.5199 30.749 21.4245Z" fill="#0C1A37"/>
</svg>
