<svg xmlns="http://www.w3.org/2000/svg">
    <symbol width="36" height="36" viewBox="0 0 36 36" fill="none" xmlns="http://www.w3.org/2000/svg" id="like">
        <path d="M17.1563 11.3369L18 12.6626L18.8437 11.3369C20.2342 9.1518 22.6901 7.75 25.5 7.75C29.8977 7.75 33.5 11.3523 33.5 15.75C33.5 17.6991 32.6013 19.7419 31.1155 21.768C29.6373 23.7838 27.6445 25.692 25.6168 27.351C23.5939 29.0061 21.5661 30.3891 20.0413 31.3595C19.2798 31.844 18.6462 32.2242 18.2044 32.4823C18.1316 32.5249 18.064 32.5641 18.0019 32.6C17.9395 32.5637 17.8715 32.524 17.7983 32.4808C17.3564 32.2207 16.7226 31.8379 15.961 31.3504C14.4358 30.374 12.4076 28.9838 10.3843 27.3238C8.35604 25.6597 6.36271 23.7487 4.88406 21.7357C3.39721 19.7116 2.5 17.6787 2.5 15.75C2.5 11.3523 6.10228 7.75 10.5 7.75C13.3099 7.75 15.7658 9.1518 17.1563 11.3369Z" stroke="#5D7B87" stroke-width="2"/>
    </symbol>
    <symbol width="36" height="36" viewBox="0 0 36 36" fill="none" xmlns="http://www.w3.org/2000/svg" id="shop-card">
        <path d="M2.25 4.5H4.875L6 9M6 9L9.75 24H29.25L33 9H6Z" stroke="#5D7B87" stroke-width="2" stroke-linecap="round" stroke-linejoin="round"/>
        <path d="M9.75 31.5C10.9926 31.5 12 30.4926 12 29.25C12 28.0074 10.9926 27 9.75 27C8.50736 27 7.5 28.0074 7.5 29.25C7.5 30.4926 8.50736 31.5 9.75 31.5Z" stroke="#5D7B87" stroke-width="2" stroke-linecap="round" stroke-linejoin="round"/>
        <path d="M29.25 31.5C30.4926 31.5 31.5 30.4926 31.5 29.25C31.5 28.0074 30.4926 27 29.25 27C28.0074 27 27 28.0074 27 29.25C27 30.4926 28.0074 31.5 29.25 31.5Z" stroke="#5D7B87" stroke-width="2" stroke-linecap="round" stroke-linejoin="round"/>
    </symbol>
    <symbol width="36" height="36" viewBox="0 0 36 36" fill="none" xmlns="http://www.w3.org/2000/svg" id="chart-board">
        <path d="M23.25 31.75H24.25V30.75V20.625C24.25 20.5918 24.2632 20.5601 24.2866 20.5366L23.5795 19.8295L24.2866 20.5366C24.3101 20.5132 24.3418 20.5 24.375 20.5H28.875C28.9082 20.5 28.9399 20.5132 28.9634 20.5366C28.9868 20.5601 29 20.5918 29 20.625V30.75V31.75H30H32.625C32.6582 31.75 32.6899 31.7632 32.7134 31.7866C32.7368 31.8101 32.75 31.8418 32.75 31.875C32.75 31.9082 32.7368 31.9399 32.7134 31.9634C32.6899 31.9868 32.6582 32 32.625 32H2.625C2.59185 32 2.56005 31.9868 2.53661 31.9634C2.51317 31.9399 2.5 31.9082 2.5 31.875C2.5 31.8418 2.51317 31.8101 2.53661 31.7866C2.56005 31.7632 2.59185 31.75 2.625 31.75H5.25H6.25V30.75V13.125C6.25 13.0918 6.26317 13.0601 6.28661 13.0366L5.5795 12.3295L6.28661 13.0366C6.31006 13.0132 6.34185 13 6.375 13H10.875C10.9081 13 10.9399 13.0132 10.9634 13.0366C10.9868 13.0601 11 13.0918 11 13.125V30.75V31.75H12H14.25H15.25V30.75V6.375C15.25 5.25601 15.2551 4.62809 15.3132 4.1887C15.3188 4.1471 15.3245 4.11108 15.3301 4.08007C15.3612 4.07451 15.3973 4.06878 15.439 4.06312C15.8766 4.00508 16.5057 4 17.625 4C18.7439 4 19.3718 4.00506 19.8112 4.06314C19.8528 4.0688 19.8889 4.07452 19.9199 4.08007C19.9255 4.11113 19.9312 4.14721 19.9369 4.18889C19.9949 4.62652 20 5.25559 20 6.375V30.75V31.75H21H23.25Z" stroke="#5D7B87" stroke-width="2"/>
    </symbol>
    <symbol width="36" height="36" viewBox="0 0 36 36" fill="none" xmlns="http://www.w3.org/2000/svg" id="user">
        <path d="M6 31.5V30C6 25.0295 10.0294 21 15 21H21C25.9705 21 30 25.0295 30 30V31.5" stroke="#5D7B87" stroke-width="2" stroke-linecap="round"/>
        <path d="M18 16.5C14.6863 16.5 12 13.8137 12 10.5C12 7.18629 14.6863 4.5 18 4.5C21.3137 4.5 24 7.18629 24 10.5C24 13.8137 21.3137 16.5 18 16.5Z" stroke="#5D7B87" stroke-width="2" stroke-linecap="round"/>
    </symbol>
    <symbol width="21" height="21" viewBox="0 0 21 21" fill="none" xmlns="http://www.w3.org/2000/svg" id="phone">
        <path d="M18.375 14.3675V17.4615C18.3751 17.683 18.2912 17.8964 18.1401 18.0584C17.9891 18.2205 17.7822 18.3192 17.5612 18.3348C17.1789 18.361 16.8665 18.375 16.625 18.375C8.89262 18.375 2.625 12.1074 2.625 4.375C2.625 4.1335 2.63813 3.82113 2.66525 3.43875C2.68076 3.21776 2.77951 3.01088 2.94158 2.85986C3.10365 2.70883 3.31697 2.6249 3.5385 2.625H6.6325C6.74103 2.62489 6.84573 2.66513 6.92626 2.73789C7.00679 2.81066 7.0574 2.91076 7.06825 3.01875C7.08838 3.22 7.10675 3.38013 7.12425 3.50175C7.29814 4.71531 7.6545 5.8956 8.18125 7.00263C8.26438 7.17763 8.21012 7.38675 8.05263 7.49875L6.16438 8.848C7.3189 11.5381 9.46273 13.682 12.1529 14.8365L13.5004 12.9517C13.5555 12.8747 13.6358 12.8195 13.7274 12.7957C13.8191 12.7719 13.9161 12.781 14.0018 12.8214C15.1086 13.3472 16.2886 13.7027 17.5018 13.8757C17.6234 13.8932 17.7835 13.9116 17.983 13.9318C18.0908 13.9428 18.1907 13.9935 18.2633 14.074C18.3359 14.1545 18.3751 14.2591 18.375 14.3675Z" fill="#5D7B87"/>
    </symbol>
    <symbol width="21" height="21" viewBox="0 0 21 21" fill="none" xmlns="http://www.w3.org/2000/svg" id="location">
        <path d="M18.3745 2.625L12.687 18.375C12.6486 18.4588 12.587 18.5298 12.5094 18.5795C12.4319 18.6293 12.3417 18.6558 12.2495 18.6558C12.1574 18.6558 12.0671 18.6293 11.9896 18.5795C11.912 18.5298 11.8504 18.4588 11.812 18.375L8.74951 12.25L2.62451 9.1875C2.54074 9.14911 2.46975 9.08747 2.41998 9.00992C2.37021 8.93236 2.34375 8.84215 2.34375 8.75C2.34375 8.65785 2.37021 8.56763 2.41998 8.49008C2.46975 8.41252 2.54074 8.35089 2.62451 8.3125L18.3745 2.625Z" stroke="#5D7B87" stroke-width="2" stroke-linecap="round" stroke-linejoin="round"/>
    </symbol>
    <symbol width="21" height="21" viewBox="0 0 21 21" fill="none" xmlns="http://www.w3.org/2000/svg" id="loc-field">
        <path d="M10.5 1.3125C8.58617 1.31476 6.75136 2.07603 5.39807 3.42932C4.04479 4.78261 3.28352 6.61741 3.28126 8.53125C3.27897 10.0952 3.78984 11.6168 4.73551 12.8625C4.73551 12.8625 4.93238 13.1217 4.96454 13.1591L10.5 19.6875L16.0381 13.1558C16.067 13.1211 16.2645 12.8625 16.2645 12.8625L16.2652 12.8605C17.2104 11.6154 17.721 10.0945 17.7188 8.53125C17.7165 6.61741 16.9552 4.78261 15.6019 3.42932C14.2487 2.07603 12.4138 1.31476 10.5 1.3125ZM10.5 11.1562C9.98083 11.1562 9.47331 11.0023 9.04164 10.7139C8.60996 10.4254 8.2735 10.0155 8.07482 9.53579C7.87614 9.05614 7.82416 8.52834 7.92545 8.01914C8.02673 7.50994 8.27674 7.04221 8.64385 6.67509C9.01096 6.30798 9.4787 6.05797 9.9879 5.95669C10.4971 5.8554 11.0249 5.90739 11.5046 6.10607C11.9842 6.30475 12.3942 6.6412 12.6826 7.07288C12.9711 7.50456 13.125 8.01207 13.125 8.53125C13.1241 9.22718 12.8473 9.89435 12.3552 10.3864C11.8631 10.8785 11.1959 11.1554 10.5 11.1562Z" fill="#5D7B87"/>
    </symbol>
    <symbol width="59" height="59" viewBox="0 0 59 59" fill="none" xmlns="http://www.w3.org/2000/svg" id="construction">
        <path d="M46.4622 51.6249L33.0028 38.1656L38.1653 33.0031L51.6247 46.4624L46.4622 51.6249ZM12.5372 51.6249L7.37467 46.4624L24.3372 29.4999L20.158 25.3208L18.4372 27.0416L15.3028 23.9072V28.9468L13.582 30.6676L6.14551 23.2312L7.86634 21.5104H12.9059L9.83301 18.4374L18.5601 9.71035C19.3795 8.89091 20.2604 8.29681 21.2028 7.92806C22.1452 7.55931 23.108 7.37494 24.0913 7.37494C25.0747 7.37494 26.0375 7.55931 26.9799 7.92806C27.9222 8.29681 28.8031 8.89091 29.6226 9.71035L23.9684 15.3645L27.0413 18.4374L25.3205 20.1583L29.4997 24.3374L35.0309 18.8062C34.867 18.3555 34.7343 17.8843 34.6327 17.3926C34.5311 16.901 34.4794 16.4093 34.4778 15.9176C34.4778 13.5003 35.3079 11.4615 36.9681 9.80131C38.6283 8.14112 40.6662 7.31184 43.082 7.31348C43.6965 7.31348 44.2808 7.37494 44.8348 7.49785C45.3887 7.62077 45.9517 7.80515 46.5236 8.05098L40.4393 14.1354L44.8643 18.5604L50.9486 12.476C51.2354 13.0496 51.4305 13.6125 51.5337 14.1649C51.637 14.7172 51.6878 15.3014 51.6861 15.9176C51.6861 18.335 50.8569 20.3738 49.1983 22.034C47.5397 23.6942 45.501 24.5235 43.082 24.5218C42.5903 24.5218 42.0986 24.4808 41.607 24.3989C41.1153 24.317 40.6441 24.1735 40.1934 23.9687L12.5372 51.6249Z" fill="#1D4A5C"/>
    </symbol>
    <symbol width="16" height="16" viewBox="0 0 16 16" fill="none" xmlns="http://www.w3.org/2000/svg" id="arrow-done">
        <path d="M6.36641 12.0001L2.56641 8.20007L3.51641 7.25007L6.36641 10.1001L12.4831 3.9834L13.4331 4.9334L6.36641 12.0001Z" fill="#42CD00"/>
    </symbol>
    <symbol width="27" height="28" viewBox="0 0 27 28" fill="none" xmlns="http://www.w3.org/2000/svg" id="shop-cardWhite">
        <path d="M1.6875 3.39355H3.65625L4.5 6.76855M4.5 6.76855L7.3125 18.0186H21.9375L24.75 6.76855H4.5Z" stroke="#F8F8F8" stroke-width="2" stroke-linecap="round" stroke-linejoin="round"/>
        <path d="M7.3125 23.6436C8.24448 23.6436 9 22.888 9 21.9561C9 21.0241 8.24448 20.2686 7.3125 20.2686C6.38052 20.2686 5.625 21.0241 5.625 21.9561C5.625 22.888 6.38052 23.6436 7.3125 23.6436Z" stroke="#F8F8F8" stroke-width="2" stroke-linecap="round" stroke-linejoin="round"/>
        <path d="M21.9375 23.6436C22.8695 23.6436 23.625 22.888 23.625 21.9561C23.625 21.0241 22.8695 20.2686 21.9375 20.2686C21.0055 20.2686 20.25 21.0241 20.25 21.9561C20.25 22.888 21.0055 23.6436 21.9375 23.6436Z" stroke="#F8F8F8" stroke-width="2" stroke-linecap="round" stroke-linejoin="round"/>
    </symbol>
    <symbol width="27" height="28" viewBox="0 0 27 28" fill="none" xmlns="http://www.w3.org/2000/svg" id="orange-like">
        <path d="M12.6563 8.65543L13.5 9.98118L14.3437 8.65543C15.3404 7.08911 17.1026 6.08105 19.125 6.08105C22.2852 6.08105 24.875 8.67084 24.875 11.8311C24.875 13.2177 24.2341 14.6979 23.135 16.1967C22.0435 17.6851 20.5664 19.1012 19.0543 20.3383C17.5471 21.5715 16.0349 22.603 14.8967 23.3272C14.3286 23.6887 13.8561 23.9722 13.5272 24.1645C13.5186 24.1694 13.5102 24.1744 13.5019 24.1792C13.4932 24.1741 13.4844 24.169 13.4755 24.1637C13.1464 23.97 12.6738 23.6845 12.1056 23.3208C10.9671 22.592 9.45445 21.5551 7.94679 20.3181C6.43417 19.0771 4.95646 17.6589 3.86453 16.1723C2.7644 14.6747 2.125 13.202 2.125 11.8311C2.125 8.67084 4.71478 6.08105 7.875 6.08105C9.89736 6.08105 11.6596 7.08911 12.6563 8.65543Z" stroke="#FE9D08" stroke-width="2"/>
    </symbol>
    <symbol width="24" height="25" viewBox="0 0 24 25" fill="none" xmlns="http://www.w3.org/2000/svg" id="search">
        <path d="M15.5 14.5H14.71L14.43 14.23C15.4439 13.054 16.0011 11.5527 16 10C16 8.71442 15.6188 7.45772 14.9046 6.3888C14.1903 5.31988 13.1752 4.48676 11.9874 3.99479C10.7997 3.50282 9.49279 3.37409 8.23192 3.6249C6.97104 3.8757 5.81285 4.49477 4.90381 5.40381C3.99477 6.31285 3.3757 7.47104 3.1249 8.73192C2.87409 9.99279 3.00282 11.2997 3.49479 12.4874C3.98676 13.6752 4.81988 14.6903 5.8888 15.4046C6.95772 16.1188 8.21442 16.5 9.5 16.5C11.11 16.5 12.59 15.91 13.73 14.93L14 15.21V16L19 20.99L20.49 19.5L15.5 14.5ZM9.5 14.5C7.01 14.5 5 12.49 5 10C5 7.51 7.01 5.5 9.5 5.5C11.99 5.5 14 7.51 14 10C14 12.49 11.99 14.5 9.5 14.5Z" fill="#FE9D08"/>
    </symbol>
    <symbol width="23" height="24" viewBox="0 0 23 24" fill="none" xmlns="http://www.w3.org/2000/svg" id="menu-grid">
        <path d="M3.83301 4.33334H7.66634V8.16668H3.83301V4.33334ZM3.83301 10.0833H7.66634V13.9167H3.83301V10.0833ZM7.66634 15.8333H3.83301V19.6667H7.66634V15.8333ZM9.58301 4.33334H13.4163V8.16668H9.58301V4.33334ZM13.4163 10.0833H9.58301V13.9167H13.4163V10.0833ZM9.58301 15.8333H13.4163V19.6667H9.58301V15.8333ZM19.1663 4.33334H15.333V8.16668H19.1663V4.33334ZM15.333 10.0833H19.1663V13.9167H15.333V10.0833ZM19.1663 15.8333H15.333V19.6667H19.1663V15.8333Z" fill="#F8F8F8"/>
    </symbol>   
    <symbol width="22" height="22" viewBox="0 0 22 22" fill="none" xmlns="http://www.w3.org/2000/svg" id="compare">
        <path d="M14.1634 19.3206H14.7634V18.7206V12.5566C14.7634 12.5342 14.7723 12.5126 14.7882 12.4967C14.8042 12.4807 14.8259 12.4717 14.8487 12.4717H17.5899C17.6127 12.4717 17.6344 12.4807 17.6504 12.4967C17.6663 12.5126 17.6752 12.5342 17.6752 12.5566V18.7206V19.3206H18.2752H19.8743C19.897 19.3206 19.9188 19.3297 19.9347 19.3456C19.9507 19.3616 19.9596 19.3831 19.9596 19.4055C19.9596 19.4279 19.9507 19.4495 19.9347 19.4654C19.9188 19.4814 19.897 19.4904 19.8743 19.4904H1.59937C1.57663 19.4904 1.55489 19.4814 1.53892 19.4654C1.52296 19.4495 1.51406 19.4279 1.51406 19.4055C1.51406 19.3831 1.52296 19.3616 1.53892 19.3456C1.55489 19.3297 1.57663 19.3206 1.59937 19.3206H3.19843H3.79843V18.7206V7.99062C3.79843 7.96822 3.80732 7.94666 3.82328 7.93072C3.83925 7.91475 3.86099 7.90572 3.88373 7.90572H6.62497C6.64771 7.90572 6.66945 7.91475 6.68542 7.93072C6.70138 7.94666 6.71028 7.96822 6.71028 7.99062V18.7206V19.3206H7.31028H8.6809H9.2809V18.7206V3.88125C9.2809 3.20024 9.28396 2.8173 9.31944 2.54912C9.32331 2.52072 9.3272 2.49671 9.3309 2.4766C9.35114 2.47288 9.37531 2.46896 9.40393 2.46508C9.67129 2.42964 10.0552 2.42657 10.7368 2.42657C11.4182 2.42657 11.8014 2.42963 12.0698 2.4651C12.0984 2.46897 12.1225 2.47289 12.1427 2.4766C12.1465 2.49673 12.1503 2.52074 12.1542 2.54916C12.1897 2.81628 12.1927 3.19992 12.1927 3.88125V18.7206V19.3206H12.7927H14.1634Z" stroke="#191919" stroke-width="1.2"/>
    </symbol>
    <symbol width="23" height="22" viewBox="0 0 23 22" fill="none" xmlns="http://www.w3.org/2000/svg" id="liked">
        <path d="M11.3654 6.89726L11.8715 7.69209L12.3776 6.89726C13.2263 5.56446 14.7253 4.70938 16.4402 4.70938C19.1246 4.70938 21.3227 6.90671 21.3227 9.58853C21.3227 10.7777 20.7741 12.0231 19.8685 13.2573C18.9674 14.4853 17.7529 15.6476 16.5173 16.6579C15.2847 17.6657 14.0491 18.5079 13.12 19.0988C12.6561 19.3939 12.27 19.6254 12.0008 19.7826C11.9546 19.8096 11.9118 19.8344 11.8726 19.857C11.8333 19.8341 11.7903 19.809 11.7439 19.7817C11.4746 19.6233 11.0884 19.3902 10.6244 19.0933C9.69508 18.4987 8.45922 17.6522 7.22635 16.6413C5.9905 15.6279 4.77562 14.464 3.87427 13.2377C2.968 12.0047 2.42031 10.7653 2.42031 9.58853C2.42031 6.90671 4.61845 4.70938 7.30278 4.70938C9.01773 4.70938 10.5167 5.56446 11.3654 6.89726Z" stroke="#191919" stroke-width="1.2"/>
    </symbol>
    <symbol width="24" height="24" viewBox="0 0 24 24" fill="none" xmlns="http://www.w3.org/2000/svg" id="r-like">
        <path d="M14.1907 7.89721L14.0641 8.5H14.68H21C21.3978 8.5 21.7794 8.65804 22.0607 8.93934C22.342 9.22064 22.5 9.60218 22.5 10V12C22.5 12.1905 22.4644 12.3667 22.3971 12.5409L19.3804 19.5831L19.3804 19.5831L19.3785 19.5877C19.1544 20.1254 18.6238 20.5 18 20.5H9C8.60218 20.5 8.22064 20.342 7.93934 20.0607C7.65803 19.7794 7.5 19.3978 7.5 19V9C7.5 8.58728 7.66397 8.21314 7.94355 7.93355L14.1717 1.70544L14.8764 2.40355C14.8767 2.40383 14.877 2.4041 14.8773 2.40437C15.0571 2.58467 15.17 2.83873 15.17 3.11C15.17 3.19027 15.1627 3.2663 15.1501 3.3298L14.1907 7.89721ZM4.5 9.5V20.5H1.5V9.5H4.5Z" stroke="#FE9D08"/>
    </symbol>
    <symbol width="24" height="24" viewBox="0 0 24 24" fill="none" xmlns="http://www.w3.org/2000/svg" id="r-dislike">
        <path d="M9.80932 16.1028L9.93595 15.5H9.32L3 15.5C2.60217 15.5 2.22064 15.342 1.93934 15.0607C1.65804 14.7794 1.5 14.3978 1.5 14V12C1.5 11.8095 1.53564 11.6333 1.60293 11.4591L4.61961 4.41688L4.61963 4.41689L4.62154 4.41231C4.84558 3.87461 5.37617 3.5 6 3.5L15 3.5C15.3978 3.5 15.7794 3.65804 16.0607 3.93934C16.342 4.22064 16.5 4.60217 16.5 5V15C16.5 15.4127 16.336 15.7869 16.0564 16.0664L9.82833 22.2946L9.12355 21.5964C9.12328 21.5962 9.12301 21.5959 9.12274 21.5956C8.94286 21.4153 8.83 21.1613 8.83 20.89C8.83 20.8097 8.83734 20.7337 8.84986 20.6702L9.80932 16.1028ZM19.5 14.5L19.5 3.5H22.5L22.5 14.5H19.5Z" stroke="#FE9D08"/>
    </symbol>
    <symbol width="36" height="36" viewBox="0 0 36 36" fill="none" xmlns="http://www.w3.org/2000/svg" id="burger">
        <path d="M5.625 18H30.375" stroke="black" stroke-width="2" stroke-linecap="round" stroke-linejoin="round"/>
        <path d="M5.625 9H30.375" stroke="black" stroke-width="2" stroke-linecap="round" stroke-linejoin="round"/>
        <path d="M5.625 27H30.375" stroke="black" stroke-width="2" stroke-linecap="round" stroke-linejoin="round"/>
    </symbol>
    <symbol width="37" height="37" viewBox="0 0 37 37" fill="none" xmlns="http://www.w3.org/2000/svg" id="close">
       <path d="M28.7637 7.98793L8.51367 28.2379" stroke="black" stroke-width="2" stroke-linecap="round" stroke-linejoin="round"/>
        <path d="M28.7637 28.2379L8.51367 7.98793" stroke="black" stroke-width="2" stroke-linecap="round" stroke-linejoin="round"/>
    </symbol>
    <symbol width="24" height="24" viewBox="0 0 24 24" fill="none" xmlns="http://www.w3.org/2000/svg" id="trash">
        <path d="M7.615 20C7.16833 20 6.78733 19.8426 6.472 19.528C6.15733 19.2133 6 18.8323 6 18.385V5.99998H5V4.99998H9V4.22998H15V4.99998H19V5.99998H18V18.385C18 18.845 17.846 19.229 17.538 19.537C17.2293 19.8456 16.845 20 16.385 20H7.615ZM17 5.99998H7V18.385C7 18.5643 7.05767 18.7116 7.173 18.827C7.28833 18.9423 7.43567 19 7.615 19H16.385C16.5383 19 16.6793 18.936 16.808 18.808C16.936 18.6793 17 18.5383 17 18.385V5.99998ZM9.808 17H10.808V7.99998H9.808V17ZM13.192 17H14.192V7.99998H13.192V17Z" fill="#FE9D08"/>
    </symbol>
    <symbol width="24" height="24" viewBox="0 0 24 24" fill="none" xmlns="http://www.w3.org/2000/svg" id="cart-like">
        <path d="M12.0747 6.66294L12.5 7.35078L12.9253 6.66294C13.7428 5.34065 15.1813 4.5 16.8182 4.5C19.3786 4.5 21.5 6.66246 21.5 9.33333C21.5 10.5205 20.9689 11.7521 20.1084 12.9599C19.2513 14.1629 18.098 15.2989 16.9279 16.2842C15.7602 17.2676 14.59 18.089 13.7104 18.6651C13.2711 18.9528 12.9055 19.1786 12.6505 19.332C12.5953 19.3651 12.5454 19.3949 12.501 19.4212C12.4564 19.3946 12.4063 19.3645 12.3509 19.331C12.0958 19.1764 11.7301 18.9491 11.2907 18.6596C10.411 18.0799 9.24059 17.2543 8.07259 16.268C6.90225 15.2797 5.74871 14.1421 4.89136 12.9408C4.03038 11.7344 3.5 10.5086 3.5 9.33333C3.5 6.66246 5.62145 4.5 8.18182 4.5C9.81871 4.5 11.2572 5.34065 12.0747 6.66294Z" stroke="#FE9D08"/>
    </symbol>
    <symbol width="17" height="17" viewBox="0 0 17 17" fill="none" xmlns="http://www.w3.org/2000/svg" id="m-home">
        <path d="M8.82512 1.17639C8.73086 1.1029 8.61475 1.06299 8.49522 1.06299C8.37569 1.06299 8.25958 1.1029 8.16531 1.17639L0.53125 7.12905L1.19159 7.96418L2.125 7.23636V13.8127C2.12556 14.0943 2.23768 14.3643 2.43682 14.5634C2.63596 14.7625 2.90588 14.8746 3.1875 14.8752H13.8125C14.0941 14.8746 14.364 14.7625 14.5632 14.5634C14.7623 14.3643 14.8744 14.0943 14.875 13.8127V7.24114L15.8084 7.96896L16.4688 7.13383L8.82512 1.17639ZM9.5625 13.8127H7.4375V9.56271H9.5625V13.8127ZM10.625 13.8127V9.56271C10.6247 9.281 10.5127 9.01091 10.3135 8.81172C10.1143 8.61252 9.84421 8.50049 9.5625 8.50021H7.4375C7.15579 8.50049 6.88571 8.61252 6.68651 8.81172C6.48731 9.01091 6.37528 9.281 6.375 9.56271V13.8127H3.1875V6.40814L8.5 2.26971L13.8125 6.41346V13.8127H10.625Z" fill="#5D7B87"/>
    </symbol>
    <symbol width="17" height="17" viewBox="0 0 17 17" fill="none" xmlns="http://www.w3.org/2000/svg" id="m-like">
        <path d="M8.07784 5.36844L8.49967 6.03131L8.9215 5.36844C9.57301 4.34465 10.7239 3.6875 12.0413 3.6875C14.1027 3.6875 15.7913 5.37614 15.7913 7.4375C15.7913 8.34956 15.3706 9.30844 14.6707 10.2629C13.9746 11.2122 13.0355 12.1116 12.0789 12.8943C11.1248 13.6749 10.1681 14.3274 9.44868 14.7852C9.08945 15.0138 8.79053 15.1931 8.58219 15.3149C8.55321 15.3318 8.52599 15.3476 8.50062 15.3623C8.47509 15.3474 8.44769 15.3314 8.41851 15.3142C8.21011 15.1916 7.91112 15.011 7.5518 14.7809C6.83218 14.3203 5.87534 13.6644 4.92099 12.8814C3.96416 12.0964 3.02478 11.1956 2.32842 10.2476C1.62797 9.29408 1.20801 8.33989 1.20801 7.4375C1.20801 5.37614 2.89665 3.6875 4.95801 3.6875C6.27544 3.6875 7.42634 4.34465 8.07784 5.36844Z" stroke="#5D7B87"/>
    </symbol>
    <symbol width="17" height="17" viewBox="0 0 17 17" fill="none" xmlns="http://www.w3.org/2000/svg" id="m-cart">
        <path d="M1.0625 2.125H2.30208L2.83333 4.25M2.83333 4.25L4.60417 11.3333H13.8125L15.5833 4.25H2.83333Z" stroke="#5D7B87" stroke-linecap="round" stroke-linejoin="round"/>
        <path d="M4.60449 14.875C5.19129 14.875 5.66699 14.3993 5.66699 13.8125C5.66699 13.2257 5.19129 12.75 4.60449 12.75C4.01769 12.75 3.54199 13.2257 3.54199 13.8125C3.54199 14.3993 4.01769 14.875 4.60449 14.875Z" stroke="#5D7B87" stroke-linecap="round" stroke-linejoin="round"/>
        <path d="M13.8125 14.875C14.3993 14.875 14.875 14.3993 14.875 13.8125C14.875 13.2257 14.3993 12.75 13.8125 12.75C13.2257 12.75 12.75 13.2257 12.75 13.8125C12.75 14.3993 13.2257 14.875 13.8125 14.875Z" stroke="#5D7B87" stroke-linecap="round" stroke-linejoin="round"/>
    </symbol>
    <symbol width="17" height="17" viewBox="0 0 17 17" fill="none" xmlns="http://www.w3.org/2000/svg" id="m-chart">
        <path d="M10.9788 15.0207H11.4788V14.5207V9.73942C11.4788 9.73113 11.4821 9.72318 11.488 9.71732C11.4939 9.71146 11.5018 9.70817 11.5101 9.70817H13.6351C13.6434 9.70817 13.6513 9.71146 13.6572 9.71732C13.663 9.72318 13.6663 9.73113 13.6663 9.73942V14.5207V15.0207H14.1663H15.4059C15.4142 15.0207 15.4222 15.024 15.428 15.0298C15.4339 15.0357 15.4372 15.0436 15.4372 15.0519C15.4372 15.0602 15.4339 15.0682 15.428 15.074C15.4222 15.0799 15.4142 15.0832 15.4059 15.0832H1.23926C1.23097 15.0832 1.22302 15.0799 1.21716 15.074C1.2113 15.0682 1.20801 15.0602 1.20801 15.0519C1.20801 15.0436 1.2113 15.0357 1.21716 15.0298C1.22302 15.024 1.23097 15.0207 1.23926 15.0207H2.47884H2.97884V14.5207V6.19775C2.97884 6.18947 2.98213 6.18152 2.98799 6.17566C2.99385 6.1698 3.0018 6.1665 3.01009 6.1665H5.13509C5.14338 6.1665 5.15133 6.1698 5.15719 6.17566C5.16305 6.18152 5.16634 6.18947 5.16634 6.19775V14.5207V15.0207H5.66634H6.72884H7.22884V14.5207V3.01025C7.22884 2.48122 7.23129 2.18689 7.2584 1.98166C7.25993 1.97043 7.26146 1.96011 7.26297 1.95063C7.27245 1.94912 7.28278 1.94759 7.29401 1.94606C7.49841 1.91896 7.79328 1.9165 8.32259 1.9165C8.85169 1.9165 9.14603 1.91895 9.35126 1.94607C9.36246 1.9476 9.37276 1.94913 9.38221 1.95064C9.38373 1.96011 9.38526 1.97043 9.38678 1.98166C9.41389 2.18606 9.41634 2.48093 9.41634 3.01025V14.5207V15.0207H9.91634H10.9788Z" stroke="#5D7B87"/>
    </symbol>
    <symbol width="17" height="17" viewBox="0 0 17 17" fill="none" xmlns="http://www.w3.org/2000/svg" id="m-user">
        <path d="M2.83301 14.8748V14.1665C2.83301 11.8193 4.7358 9.9165 7.08301 9.9165H9.91634C12.2635 9.9165 14.1663 11.8193 14.1663 14.1665V14.8748" stroke="#5D7B87" stroke-linecap="round"/>
        <path d="M8.49935 7.79167C6.93454 7.79167 5.66602 6.52314 5.66602 4.95833C5.66602 3.39353 6.93454 2.125 8.49935 2.125C10.0641 2.125 11.3327 3.39353 11.3327 4.95833C11.3327 6.52314 10.0641 7.79167 8.49935 7.79167Z" stroke="#5D7B87" stroke-linecap="round"/>
    </symbol>
    <symbol width="23" height="23" viewBox="0 0 23 23" fill="none" xmlns="http://www.w3.org/2000/svg" id="modal-close">
        <path d="M6.13464 18.2077L4.79297 16.866L10.1596 11.4993L4.79297 6.13268L6.13464 4.79102L11.5013 10.1577L16.868 4.79102L18.2096 6.13268L12.843 11.4993L18.2096 16.866L16.868 18.2077L11.5013 12.841L6.13464 18.2077Z" fill="#191919"/>
    </symbol>


</svg>